<svg xmlns="http://www.w3.org/2000/svg" viewBox="0 0 1935.87 530.96" preserveAspectRatio="none"><defs><linearGradient id="a" x1="31.92" y1="265.48" x2="2223.6" y2="265.48" gradientUnits="userSpaceOnUse"><stop offset="0" stop-color="#ffdd7d"/><stop offset=".27" stop-color="#f94ffc"/><stop offset=".39" stop-color="#8752f5"/><stop offset=".48" stop-color="#f94ffc"/><stop offset=".66" stop-color="#ffdd7d"/><stop offset=".78" stop-color="#f94ffc"/><stop offset="1" stop-color="#8752f5"/></linearGradient></defs><path d="M.11 36.57c254.3-6.07 300.46 101.3 343.15 273.45 9.89 39.89 27.86 77.42 53.26 109.72 155.86 198.17 485.42 86.62 659.8-62.11 46.89-38.35 89.26-81.64 132.92-123.44 119.43-114.36 290.78-157.91 449.74-112.39 78.02 22.34 148.71 64.38 197.87 125.73 17.44 23.69 32.02 51.09 40.79 80.04 18.04 59.56.7 124.58-46.24 165.43-179.6 156.31-352.93-426.18 103.87-488.54" fill="none" stroke="url(#a)" stroke-width="9"/></svg>